<svg id="SvgjsSvg1001" width="288" height="288" xmlns="http://www.w3.org/2000/svg" version="1.1" xmlns:xlink="http://www.w3.org/1999/xlink" xmlns:svgjs="http://svgjs.com/svgjs"><defs id="SvgjsDefs1002"></defs><g id="SvgjsG1008" transform="matrix(0.9167,0,0,0.9167,11.995200635528562,11.995200635528562)"><!--?xml version="1.0" encoding="UTF-8"?--><svg xmlns="http://www.w3.org/2000/svg" xmlns:xlink="http://www.w3.org/1999/xlink" version="1.1" id="Privacy" x="0px" y="0px" width="288" height="288" viewBox="0 0 512 512" xml:space="preserve"><linearGradient id="SVGID_1_" gradientUnits="userSpaceOnUse" x1="135.103" y1="471" x2="376.8968" y2="229.2062"><stop offset="0" stop-color="#FF7BAC"></stop><stop offset="1" stop-color="#0FF"></stop></linearGradient><path fill="url(#SVGID_1_)" d="M371.994 461.68H140.007c-18.966 0-34.34-15.375-34.34-34.34V272.867c0-18.966 15.374-34.34 34.34-34.34h231.987c18.965 0 34.339 15.375 34.339 34.34V427.34c0 18.965-15.374 34.34-34.339 34.34z"></path><path fill="#3d4ac8" d="M377.521 224.297h-40v-53.116c0-44.587-36.274-80.861-80.86-80.861-44.587 0-80.861 36.274-80.861 80.861v53.116h-40v-53.116c0-66.643 54.218-120.861 120.861-120.861s120.86 54.218 120.86 120.861v53.116z" class="color3F5EAB svgShape"></path><path fill="#3d4ac8" d="M291 327.844c0-19.33-15.67-35-35-35s-35 15.67-35 35c0 10.8 4.895 20.453 12.582 26.873l-11.732 41.986h68.01l-11.677-41.788c7.824-6.419 12.817-16.161 12.817-27.071z" class="color3F5EAB svgShape"></path><metadata><rdf:rdf xmlns:rdf="http://www.w3.org/1999/02/22-rdf-syntax-ns#" xmlns:rdfs="http://www.w3.org/2000/01/rdf-schema#" xmlns:dc="http://purl.org/dc/elements/1.1/"><rdf:description about="https://iconscout.com/legal#licenses" dc:title="privacy,lock,padlock,safety,security,protectiin" dc:description="privacy,lock,padlock,safety,security,protectiin" dc:publisher="Iconscout" dc:date="2018-07-14" dc:format="image/svg+xml" dc:language="en"><dc:creator><rdf:bag><rdf:li>Chanut Is Industries</rdf:li></rdf:bag></dc:creator></rdf:description></rdf:rdf></metadata></svg></g></svg>